Coordinates
version=1
nRows=38
nColumns=12
inDegrees=yes

Units are S.I. units (second, meters, Newtons, ...)
Angles are in degrees

endheader
time	SC_y	SC_z	SC_x	AC_y	AC_z	AC_x	GH_y	GH_z	GH_yy	EL_x	PS_y
       0.0              -50.25          23.22          21.81          49.88          6.187          -5.69         -164.3          2.699         -146.8          20.19          107.7
   0.03662              -50.24          23.23          21.81          49.88          6.187         -5.689         -164.2          2.702         -146.8          20.19          107.7
   0.07324              -50.24          23.23          21.81          49.88          6.187         -5.687         -164.2          2.705         -146.8           20.2          107.7
    0.1099              -50.24          23.23          21.81          49.88          6.187         -5.686         -164.2          2.707         -146.8          20.21          107.7
    0.1465              -50.24          23.23          21.81          49.87          6.187         -5.684         -164.1           2.71         -146.8          20.21          107.7
    0.1831              -50.24          23.24          21.81          49.87          6.186         -5.682         -164.1          2.714         -146.7          20.22          107.7
    0.2197              -50.24          23.24          21.82          49.87          6.186          -5.68         -164.1          2.717         -146.7          20.23          107.7
    0.2563              -50.24          23.24          21.82          49.87          6.186         -5.678         -164.0          2.721         -146.7          20.23          107.7
     0.293              -50.24          23.25          21.82          49.87          6.185         -5.676         -164.0          2.725         -146.7          20.24          107.7
    0.3296              -50.23          23.25          21.82          49.87          6.185         -5.673         -163.9          2.729         -146.7          20.25          107.7
    0.3662              -50.23          23.25          21.82          49.87          6.184          -5.67         -163.9          2.733         -146.6          20.26          107.7
    0.4028              -50.23          23.26          21.82          49.87          6.184         -5.668         -163.8          2.738         -146.6          20.27          107.7
    0.4394              -50.23          23.26          21.82          49.87          6.184         -5.664         -163.8          2.743         -146.6          20.28          107.7
    0.4761              -50.23          23.27          21.83          49.87          6.183         -5.661         -163.7          2.749         -146.5          20.29          107.7
    0.5127              -50.22          23.27          21.83          49.86          6.183         -5.657         -163.6          2.755         -146.5           20.3          107.8
    0.5493              -50.22          23.28          21.83          49.86          6.182         -5.654         -163.5          2.762         -146.5          20.32          107.8
    0.5859              -50.22          23.29          21.83          49.86          6.181         -5.649         -163.5          2.769         -146.4          20.33          107.8
    0.6225              -50.21          23.29          21.84          49.86          6.181         -5.645         -163.4          2.777         -146.4          20.35          107.8
    0.6592              -50.21           23.3          21.84          49.86           6.18          -5.64         -163.3          2.786         -146.3          20.36          107.8
    0.6958              -50.21          23.31          21.84          49.86          6.179         -5.634         -163.2          2.795         -146.3          20.38          107.8
    0.7324               -50.2          23.32          21.85          49.85          6.178         -5.628         -163.0          2.805         -146.2           20.4          107.8
     0.769               -50.2          23.33          21.85          49.85          6.177         -5.621         -162.9          2.817         -146.2          20.43          107.8
    0.8056              -50.19          23.34          21.85          49.85          6.176         -5.614         -162.8          2.829         -146.1          20.45          107.8
    0.8423              -50.19          23.35          21.86          49.84          6.175         -5.606         -162.6          2.843         -146.0          20.48          107.9
    0.8789              -50.18          23.37          21.86          49.84          6.173         -5.597         -162.4          2.859         -145.9          20.51          107.9
    0.9155              -50.18          23.38          21.87          49.84          6.172         -5.586         -162.2          2.876         -145.8          20.54          107.9
    0.9521              -50.17           23.4          21.88          49.83           6.17         -5.575         -162.0          2.895         -145.7          20.58          107.9
    0.9887              -50.16          23.42          21.88          49.83          6.168         -5.562         -161.7          2.917         -145.6          20.63          108.0
     1.025              -50.15          23.44          21.89          49.82          6.166         -5.548         -161.4          2.942         -145.5          20.68          108.0
     1.062              -50.14          23.47           21.9          49.81          6.164         -5.531         -161.1           2.97         -145.3          20.73          108.0
     1.099              -50.13           23.5          21.91          49.81          6.161         -5.512         -160.7          3.001         -145.1           20.8          108.1
     1.135              -50.11          23.53          21.93           49.8          6.157         -5.491         -160.3          3.038         -144.9          20.87          108.1
     1.172              -50.09          23.57          21.94          49.79          6.154         -5.466         -159.8           3.08         -144.7          20.95          108.1
     1.208              -50.08          23.61          21.96          49.78          6.149         -5.437         -159.2          3.129         -144.4          21.05          108.2
     1.245              -50.05          23.66          21.98          49.76          6.144         -5.403         -158.6          3.187         -144.1          21.17          108.3
     1.282              -50.03          23.72           22.0          49.75          6.138         -5.363         -157.8          3.254         -143.7           21.3          108.4
     1.318              -49.99           23.8          22.03          49.73          6.131         -5.316         -156.8          3.335         -143.2          21.47          108.5
     1.355              -49.96          23.88          22.06          49.71          6.123         -5.259         -155.7          3.431         -142.7          21.66          108.6
